<svg xmlns="http://www.w3.org/2000/svg" viewBox="0 0 100 100" preserveAspectRatio="xMidYMid" width="242" height="242" style="shape-rendering: auto; display: block; background: rgba(255, 255, 255, 0);" xmlns:xlink="http://www.w3.org/1999/xlink"><g><g transform="rotate(0 50 50)">
  <rect fill="#cac9c9" height="12" width="6" ry="6" rx="3" y="12" x="47">
    <animate repeatCount="indefinite" begin="-3.7777777777777777s" dur="4s" keyTimes="0;1" values="1;0" attributeName="opacity"></animate>
  </rect>
</g><g transform="rotate(20 50 50)">
  <rect fill="#cac9c9" height="12" width="6" ry="6" rx="3" y="12" x="47">
    <animate repeatCount="indefinite" begin="-3.5555555555555554s" dur="4s" keyTimes="0;1" values="1;0" attributeName="opacity"></animate>
  </rect>
</g><g transform="rotate(40 50 50)">
  <rect fill="#cac9c9" height="12" width="6" ry="6" rx="3" y="12" x="47">
    <animate repeatCount="indefinite" begin="-3.3333333333333335s" dur="4s" keyTimes="0;1" values="1;0" attributeName="opacity"></animate>
  </rect>
</g><g transform="rotate(60 50 50)">
  <rect fill="#cac9c9" height="12" width="6" ry="6" rx="3" y="12" x="47">
    <animate repeatCount="indefinite" begin="-3.111111111111111s" dur="4s" keyTimes="0;1" values="1;0" attributeName="opacity"></animate>
  </rect>
</g><g transform="rotate(80 50 50)">
  <rect fill="#cac9c9" height="12" width="6" ry="6" rx="3" y="12" x="47">
    <animate repeatCount="indefinite" begin="-2.888888888888889s" dur="4s" keyTimes="0;1" values="1;0" attributeName="opacity"></animate>
  </rect>
</g><g transform="rotate(100 50 50)">
  <rect fill="#cac9c9" height="12" width="6" ry="6" rx="3" y="12" x="47">
    <animate repeatCount="indefinite" begin="-2.6666666666666665s" dur="4s" keyTimes="0;1" values="1;0" attributeName="opacity"></animate>
  </rect>
</g><g transform="rotate(120 50 50)">
  <rect fill="#cac9c9" height="12" width="6" ry="6" rx="3" y="12" x="47">
    <animate repeatCount="indefinite" begin="-2.4444444444444446s" dur="4s" keyTimes="0;1" values="1;0" attributeName="opacity"></animate>
  </rect>
</g><g transform="rotate(140 50 50)">
  <rect fill="#cac9c9" height="12" width="6" ry="6" rx="3" y="12" x="47">
    <animate repeatCount="indefinite" begin="-2.2222222222222223s" dur="4s" keyTimes="0;1" values="1;0" attributeName="opacity"></animate>
  </rect>
</g><g transform="rotate(160 50 50)">
  <rect fill="#cac9c9" height="12" width="6" ry="6" rx="3" y="12" x="47">
    <animate repeatCount="indefinite" begin="-2s" dur="4s" keyTimes="0;1" values="1;0" attributeName="opacity"></animate>
  </rect>
</g><g transform="rotate(180 50 50)">
  <rect fill="#cac9c9" height="12" width="6" ry="6" rx="3" y="12" x="47">
    <animate repeatCount="indefinite" begin="-1.7777777777777777s" dur="4s" keyTimes="0;1" values="1;0" attributeName="opacity"></animate>
  </rect>
</g><g transform="rotate(200 50 50)">
  <rect fill="#cac9c9" height="12" width="6" ry="6" rx="3" y="12" x="47">
    <animate repeatCount="indefinite" begin="-1.5555555555555556s" dur="4s" keyTimes="0;1" values="1;0" attributeName="opacity"></animate>
  </rect>
</g><g transform="rotate(220 50 50)">
  <rect fill="#cac9c9" height="12" width="6" ry="6" rx="3" y="12" x="47">
    <animate repeatCount="indefinite" begin="-1.3333333333333333s" dur="4s" keyTimes="0;1" values="1;0" attributeName="opacity"></animate>
  </rect>
</g><g transform="rotate(240 50 50)">
  <rect fill="#cac9c9" height="12" width="6" ry="6" rx="3" y="12" x="47">
    <animate repeatCount="indefinite" begin="-1.1111111111111112s" dur="4s" keyTimes="0;1" values="1;0" attributeName="opacity"></animate>
  </rect>
</g><g transform="rotate(260 50 50)">
  <rect fill="#cac9c9" height="12" width="6" ry="6" rx="3" y="12" x="47">
    <animate repeatCount="indefinite" begin="-0.8888888888888888s" dur="4s" keyTimes="0;1" values="1;0" attributeName="opacity"></animate>
  </rect>
</g><g transform="rotate(280 50 50)">
  <rect fill="#cac9c9" height="12" width="6" ry="6" rx="3" y="12" x="47">
    <animate repeatCount="indefinite" begin="-0.6666666666666666s" dur="4s" keyTimes="0;1" values="1;0" attributeName="opacity"></animate>
  </rect>
</g><g transform="rotate(300 50 50)">
  <rect fill="#cac9c9" height="12" width="6" ry="6" rx="3" y="12" x="47">
    <animate repeatCount="indefinite" begin="-0.4444444444444444s" dur="4s" keyTimes="0;1" values="1;0" attributeName="opacity"></animate>
  </rect>
</g><g transform="rotate(320 50 50)">
  <rect fill="#cac9c9" height="12" width="6" ry="6" rx="3" y="12" x="47">
    <animate repeatCount="indefinite" begin="-0.2222222222222222s" dur="4s" keyTimes="0;1" values="1;0" attributeName="opacity"></animate>
  </rect>
</g><g transform="rotate(340 50 50)">
  <rect fill="#cac9c9" height="12" width="6" ry="6" rx="3" y="12" x="47">
    <animate repeatCount="indefinite" begin="0s" dur="4s" keyTimes="0;1" values="1;0" attributeName="opacity"></animate>
  </rect>
</g><g></g></g><!-- [ldio] generated by https://loading.io --></svg>